# xmcd
# 
# Track frame offsets:
#     150
#     22042
#     40043
#     55131
#     74385
#     92234
#     107879
#     123316
#     139040
#     154999
#     171754
#     185418
#     198838
#     214277
#     229215
# 
# Disc length: 3355
# 
# Revision: 4
# Processed by: cddbd v1.5.2PL0 Copyright (c) Steve Scherf et al.
# Submitted via: fre:ac v1.1beta1pre3
# 
DISCID=d70d190f
DTITLE=Big and Rich - Greatest Hits
DYEAR=2009
DGENRE=Country
TTITLE0=Rollin' ( The Ballad Of Big and Rich )
TTITLE1=Wild West Show
TTITLE2=Save A Horse ( Ride A Cowboy )
TTITLE3=Holy Water
TTITLE4=Big Time
TTITLE5=Comin' To Your City
TTITLE6=Never Mind Me
TTITLE7=8th Of November
TTITLE8=Lost In This Moment
TTITLE9=Between Raising Hell And Amazing Grace
TTITLE10=Loud
TTITLE11=Jalapeño
TTITLE12=The Man I Am Right Now
TTITLE13=Everybody's Rockin'
TTITLE14=Kick My Ass
EXTD=YEAR: 2009
EXTT0=
EXTT1=
EXTT2=
EXTT3=
EXTT4=
EXTT5=
EXTT6=
EXTT7=
EXTT8=
EXTT9=
EXTT10=
EXTT11=
EXTT12=
EXTT13=
EXTT14=
PLAYORDER=
